<svg width="88" height="55" viewBox="0 0 88 55" fill="none" xmlns="http://www.w3.org/2000/svg">
<g clip-path="url(#clip0_105_313)">
<path d="M56.1519 30.3805C55.5003 30.3147 54.8473 30.4915 54.3177 30.8768C53.9031 31.1658 53.834 31.5552 54.2171 31.8756C54.3937 31.9958 54.5861 32.091 54.7888 32.1583C54.8767 32.196 54.9898 32.1583 55.0777 32.2086C55.5803 32.4662 55.6682 33.019 55.8944 33.465C56.0389 33.7477 55.8253 34.0932 55.5928 34.3005C55.0325 34.8201 54.3836 35.235 53.6769 35.5255C53.5117 35.5725 53.3592 35.6562 53.2309 35.7706C52.6563 36.3836 51.9962 36.9104 51.271 37.3348C50.8399 37.6675 50.4573 38.0587 50.1341 38.497C49.711 39.1989 49.186 39.834 48.5762 40.3816C48.528 40.414 48.4837 40.452 48.4443 40.4947C48.1804 40.7774 48.2433 41.0601 48.6265 41.1229C49.0452 41.1977 49.4446 41.3558 49.8011 41.5878C49.9645 41.6883 50.1089 41.8202 50.2597 41.9333C50.4715 42.0546 50.6272 42.2544 50.693 42.4894C50.7588 42.7245 50.7295 42.9761 50.6115 43.1897C50.5486 43.3594 50.668 43.5981 50.712 43.818C50.7862 44.0574 50.8367 44.3036 50.8627 44.553C50.8369 44.8848 50.8885 45.2182 51.0135 45.5267C51.0544 45.6747 51.0544 45.831 51.0135 45.979C50.9695 46.3434 50.8879 46.7077 50.8565 47.0721C50.8251 47.4365 50.7748 47.8197 50.2911 47.9013C50.0712 47.9327 50.021 48.1087 50.0524 48.3034C50.0838 48.4981 50.1466 48.5986 50.1717 48.7557C50.2133 48.9626 50.2365 49.1729 50.2409 49.3839C50.2691 49.6932 50.2691 50.0044 50.2409 50.3137C50.1815 50.718 50.0761 51.1143 49.9268 51.4947C49.831 51.654 49.7803 51.8365 49.7803 52.0224C49.7803 52.2083 49.831 52.3908 49.9268 52.5501C49.9849 52.6415 50.0097 52.7501 49.9971 52.8576C49.9845 52.9652 49.9353 53.0651 49.8577 53.1406C49.7446 53.2885 49.5918 53.4011 49.417 53.4653C49.2423 53.5294 49.0529 53.5425 48.871 53.503C48.6892 53.4634 48.5223 53.3729 48.39 53.242C48.2577 53.1111 48.1654 52.9452 48.1239 52.7637C48.1041 52.564 48.0367 52.3719 47.9274 52.2036C47.8181 52.0353 47.6701 51.8956 47.4957 51.7963C47.1012 51.4794 46.7355 51.1283 46.4027 50.7471C46.3085 50.6529 46.2332 50.4959 46.1201 50.4582C45.649 50.3262 45.5547 49.9493 45.5296 49.5473C45.4719 49.1368 45.2663 48.7616 44.9517 48.4919C44.7004 48.228 44.5497 48.228 44.2356 48.429C43.9215 48.63 43.419 48.9693 42.9792 49.2206C42.7218 49.3849 42.4315 49.4909 42.1287 49.5311C41.8259 49.5712 41.518 49.5446 41.2266 49.453C40.7417 49.2985 40.2339 49.2284 39.7253 49.2457C39.2205 49.2742 38.7178 49.1611 38.2738 48.9191C37.8299 48.6771 37.4623 48.3159 37.2126 47.8762C37.0179 47.5621 36.8357 47.248 36.6284 46.9339C36.5277 46.7912 36.4022 46.6678 36.2578 46.5695C35.6106 46.0019 35.0905 45.304 34.7314 44.5216C34.2397 43.6084 33.8982 42.6221 33.72 41.6003C33.5065 40.6706 33.1672 39.766 32.9034 38.8425C32.8724 38.6987 32.8009 38.5667 32.6974 38.462C32.5939 38.3574 32.4627 38.2846 32.3192 38.252C31.2165 37.8947 30.2439 37.2193 29.5239 36.3108C29.0842 35.8334 28.6507 35.3559 28.2675 34.8596C28.1881 34.7485 28.0746 34.6663 27.9443 34.6255C27.8139 34.5847 27.6738 34.5875 27.5452 34.6335L26.1946 35.0418C26.1359 35.0494 26.0799 35.071 26.0313 35.1047C25.4471 35.5436 24.8149 35.9146 24.1468 36.2103C24.0014 36.3035 23.8479 36.3834 23.6882 36.449C23.3364 36.5747 23.2359 36.694 23.3239 37.0396C23.376 37.2262 23.4706 37.3982 23.6003 37.5421C23.9206 37.9316 23.9583 38.0509 23.6631 38.4593C23.4291 38.7549 23.3108 39.1256 23.3301 39.5021C23.328 39.6395 23.3555 39.7757 23.4108 39.9015C23.4661 40.0272 23.5478 40.1396 23.6505 40.2309C23.7769 40.3224 23.8766 40.446 23.9395 40.5889C24.0147 40.794 24.1481 40.9727 24.3232 41.1033C24.4983 41.2338 24.7077 41.3105 24.9257 41.3239C25.1309 41.3229 25.3333 41.3723 25.515 41.4675C25.6968 41.5628 25.8525 41.7012 25.9685 41.8705C26.0195 41.9281 26.0814 41.9751 26.1506 42.0087C26.3678 42.1254 26.5548 42.2913 26.6966 42.493C26.8384 42.6948 26.931 42.9269 26.9672 43.1709C26.9751 43.3187 27.0348 43.4589 27.136 43.567C27.2371 43.675 27.3731 43.7439 27.52 43.7614C27.809 43.8054 28.0917 43.8808 28.3744 43.9373C28.5506 43.954 28.7238 43.9941 28.8894 44.0567C29.5741 44.4273 30.2526 44.8231 30.9247 45.2189C31.1565 45.3623 31.3808 45.5174 31.5968 45.6837C31.9597 45.9444 32.3908 46.0934 32.8372 46.1124C33.2836 46.1314 33.7258 46.0195 34.1095 45.7906C34.2194 45.7315 34.3445 45.7065 34.4687 45.7189C34.5928 45.7312 34.7106 45.7802 34.8068 45.8596C35.1809 46.1454 35.5002 46.4966 35.749 46.8962C35.8262 47.0243 35.8552 47.1758 35.8307 47.3234C35.7441 47.666 35.622 47.9986 35.4664 48.3159C35.1079 48.9256 34.6108 49.4422 34.0153 49.8237C33.8254 49.9491 33.6429 50.0855 33.4688 50.232C33.3891 50.3152 33.2899 50.3772 33.1802 50.4123C33.0705 50.4474 32.9538 50.4545 32.8406 50.433C31.917 50.2772 31.0058 50.0547 30.1143 49.7671C29.9813 49.7408 29.8552 49.6873 29.7438 49.6101C29.5325 49.4383 29.2784 49.3276 29.0088 49.2897C28.7587 49.1931 28.5303 49.0479 28.3366 48.8625C28.219 48.7574 28.1137 48.6394 28.0225 48.5107C27.9288 48.3718 27.7912 48.2685 27.6317 48.2172C27.4723 48.166 27.3002 48.1698 27.1431 48.228C26.8784 48.2877 26.6038 48.2877 26.3391 48.228C25.4164 48.119 24.5621 47.6873 23.9269 47.0093C23.2548 46.7517 22.8904 46.0858 22.2434 45.7529C21.8712 45.5336 21.5618 45.222 21.3452 44.8482C20.6932 43.9206 19.973 43.0429 19.1905 42.2223C19.0543 42.0578 18.9305 41.8836 18.8199 41.7009C18.7586 41.579 18.6827 41.4651 18.5938 41.3616C18.2708 41.063 18.0118 40.7019 17.8325 40.3002C17.6533 39.8985 17.5575 39.4645 17.551 39.0247C17.4532 38.2209 17.5793 37.4056 17.9153 36.6689C18.2922 35.8585 18.6252 35.023 18.9707 34.1937C19.0712 33.9362 19.1591 33.6786 19.2471 33.421C19.4104 32.9436 19.4418 32.4096 19.8752 32.0578C19.9168 32.0167 19.9452 31.9643 19.9569 31.907C20.1014 31.0527 20.6981 30.4622 21.1692 29.7962C21.408 29.4633 21.5964 29.0927 21.854 28.7785C22.1115 28.4644 22.5135 28.0687 22.8402 27.7106C23.1668 27.3525 23.4683 27.0321 23.751 26.6615C23.8415 26.5303 23.89 26.3748 23.89 26.2154C23.89 26.0561 23.8415 25.9006 23.751 25.7694C23.5626 25.4302 23.3364 25.1035 23.1228 24.7831C23.0665 24.7017 22.985 24.6409 22.8908 24.6103C22.7966 24.5796 22.695 24.5808 22.6015 24.6135C22.3703 24.6592 22.1323 24.6582 21.9015 24.6108C21.6706 24.5633 21.4516 24.4703 21.2572 24.3371C20.7421 24.0355 20.1767 23.8219 19.6428 23.5455C19.4038 23.4131 19.173 23.2662 18.9518 23.1058C18.8651 23.0294 18.7678 22.9659 18.6629 22.9173C18.4059 22.8265 18.1854 22.6545 18.0347 22.4273C17.8745 22.2305 17.6957 22.0495 17.5007 21.887C17.2997 21.7174 17.1301 21.7551 17.0485 22.0064C16.9731 22.2284 16.9225 22.458 16.8977 22.6912C16.7721 23.8973 16.6213 25.1098 16.5522 26.3223C16.4989 27.2296 16.7036 28.1335 17.1427 28.9293C17.4532 29.6068 17.5726 30.3562 17.4882 31.0967C17.49 31.2359 17.4542 31.373 17.3846 31.4935C17.3149 31.614 17.214 31.7135 17.0924 31.7814C16.6828 32.022 16.3663 32.3939 16.1942 32.8368C16.1166 33.0038 16.0032 33.1517 15.8621 33.2701C15.7209 33.3884 15.5555 33.4742 15.3776 33.5215C14.6762 33.7775 13.9134 33.8126 13.1915 33.6221C12.0628 33.4577 10.9947 33.0079 10.0884 32.3154C9.52279 31.8342 9.02045 31.2832 8.59332 30.6758C8.05938 29.8905 7.68876 28.9922 7.18623 28.1629C6.90976 27.5618 6.55491 26.9998 6.13091 26.4918C5.98015 26.3536 5.94245 26.1087 5.84194 25.9202C5.60324 25.4302 5.34571 24.9464 5.11957 24.4439C4.77115 23.8851 4.27562 23.433 3.68733 23.1372C3.20992 22.798 2.7451 22.4462 2.29282 22.0755C2.15942 21.9319 2.04536 21.7713 1.95358 21.5981C1.84757 21.4128 1.72117 21.24 1.5767 21.0829C1.43753 20.9584 1.33101 20.8017 1.26641 20.6265C1.2018 20.4513 1.18109 20.2629 1.2061 20.0778C1.2255 19.784 1.26747 19.492 1.3317 19.2046C1.60996 17.986 1.81968 16.7528 1.95987 15.5107C2.06577 14.9262 1.96119 14.323 1.66465 13.8082C1.56825 13.607 1.4925 13.3965 1.43852 13.18C1.37412 12.9634 1.29 12.7531 1.18723 12.5518C0.755775 11.7812 0.50851 10.9211 0.464826 10.039C0.395728 9.41075 0.238711 8.78254 0.175894 8.12292C0.13188 7.57726 0.13188 7.02895 0.175894 6.48329C0.183523 6.25461 0.276911 6.03717 0.437528 5.87422C0.598145 5.71126 0.81423 5.6147 1.04277 5.60378C1.26626 5.60926 1.485 5.66939 1.67991 5.77889C1.87482 5.8884 2.03994 6.04396 2.16089 6.23199C2.49382 6.86021 2.83931 7.48842 3.1848 8.11663C3.34717 8.39075 3.61137 8.58949 3.91975 8.66946C4.30921 8.80767 4.59189 8.66946 4.54792 8.27368C4.50394 7.44444 4.86202 7.09265 5.67236 6.94817C5.95866 6.90832 6.22245 6.77096 6.41927 6.55925C6.61609 6.34754 6.73387 6.07444 6.75279 5.78599C6.82817 5.15778 7.00408 4.59865 7.12343 4.00185C7.19942 3.54012 7.3568 3.09554 7.58826 2.68887C7.7176 2.36153 7.81641 2.02297 7.88349 1.67745C7.95306 1.35408 8.08677 1.04795 8.27666 0.777121C8.46656 0.506292 8.70878 0.276251 8.98907 0.100635C9.12199 0.0240019 9.27527 -0.00985952 9.4281 0.00362683C9.58094 0.0171132 9.72595 0.077291 9.8434 0.176017C10.0815 0.325463 10.269 0.54343 10.3811 0.801277C10.4931 1.05912 10.5247 1.34484 10.4716 1.62094C10.4339 1.99158 10.3773 2.3622 10.3522 2.73285C10.3098 2.97529 10.327 3.22442 10.4025 3.45868C10.478 3.69294 10.6096 3.90526 10.7857 4.07723C10.8825 4.16466 10.9967 4.23073 11.1207 4.27113C11.2448 4.31153 11.3759 4.32536 11.5057 4.31174C11.6354 4.29811 11.7609 4.25733 11.8738 4.19203C11.9868 4.12673 12.0847 4.0384 12.1613 3.93275C12.2886 3.73264 12.4894 3.59051 12.7204 3.53698C12.9104 3.48913 13.0829 3.38804 13.2175 3.24561C13.3522 3.10318 13.4434 2.9253 13.4805 2.73285C13.6815 1.96014 13.8385 1.86591 14.6552 1.94758C14.8385 1.97931 15.0266 1.96864 15.2052 1.91637C15.3838 1.8641 15.5481 1.77163 15.6854 1.64605C15.8697 1.48726 16.083 1.36566 16.3135 1.28797C16.378 1.24953 16.4512 1.22802 16.5262 1.22539C16.6012 1.22276 16.6758 1.2391 16.7428 1.27294C16.8098 1.30677 16.8672 1.35698 16.9097 1.41891C16.9521 1.48084 16.9783 1.55246 16.9857 1.62719C17.0105 1.83585 17.0105 2.04673 16.9857 2.2554C16.9731 2.44994 16.9731 2.64513 16.9857 2.83967C16.988 2.88436 17.0002 2.92797 17.0214 2.96735C17.0426 3.00674 17.0724 3.04089 17.1085 3.06735C17.1446 3.09381 17.1861 3.11192 17.23 3.12034C17.274 3.12876 17.3192 3.12733 17.3626 3.11609C17.8163 3.00303 18.2908 3.00303 18.7445 3.11609C18.8213 3.13105 18.9009 3.11997 18.9707 3.08464C19.089 3.03506 19.2161 3.00953 19.3444 3.00953C19.4728 3.00953 19.5998 3.03506 19.7182 3.08464C20.2871 3.24486 20.8893 3.24486 21.4582 3.08464C21.8011 3.02494 22.1518 3.02494 22.4947 3.08464C22.7585 3.11605 22.9595 3.51184 22.9093 3.84479C22.8711 4.03758 22.8165 4.22676 22.746 4.4102C22.6913 4.55609 22.6452 4.70499 22.6077 4.85621C22.5763 5.04467 22.5198 5.27085 22.7334 5.39021C22.947 5.50957 23.0412 5.32109 23.1857 5.21429C23.358 5.06806 23.5582 4.95819 23.774 4.89125C23.9899 4.82432 24.2172 4.80171 24.442 4.8248C24.8335 4.86732 25.2295 4.82664 25.6041 4.70544C25.7089 4.65972 25.8233 4.64069 25.9372 4.65008C26.0512 4.65946 26.161 4.69695 26.2569 4.7592C26.3527 4.82145 26.4316 4.90653 26.4866 5.00678C26.5415 5.10703 26.5706 5.21935 26.5715 5.33365C26.5743 5.56734 26.5554 5.80078 26.515 6.03096C26.515 6.35763 26.5652 6.47073 26.8918 6.48329C27.1656 6.48527 27.4389 6.46214 27.7085 6.4142C28.1356 6.3451 28.5502 6.23829 28.9648 6.1629C29.505 6.07495 29.7312 6.20686 29.7563 6.74084C29.8409 7.22231 30.0391 7.67668 30.3342 8.06636C30.418 8.16227 30.5289 8.23046 30.6523 8.26188C30.7757 8.29329 30.9058 8.28646 31.0252 8.24228C31.6534 7.991 32.2815 7.76486 32.8594 7.47588C33.1276 7.3809 33.4143 7.34962 33.6966 7.38451C33.979 7.4194 34.2494 7.51947 34.4864 7.67688C34.585 7.727 34.6614 7.81198 34.7009 7.91529C34.7404 8.01861 34.74 8.1329 34.7 8.23599C34.3984 9.15318 34.8947 9.68717 35.5668 10.1206L35.6171 10.152C36.2013 10.887 36.9991 10.7363 37.7717 10.6735C38.1046 10.6735 38.4376 10.6735 38.7642 10.6107C39.2716 10.5753 39.7755 10.5018 40.2718 10.3908C41.1387 10.1583 42.0181 9.98242 42.8787 9.71857C43.4252 9.54895 43.9906 9.3982 44.5559 9.27256C44.7101 9.25073 44.8666 9.25073 45.0208 9.27256C45.1669 9.29312 45.3156 9.26156 45.4408 9.18345C45.566 9.10534 45.6597 8.98567 45.7055 8.84538V8.79511C45.7863 8.50497 45.9263 8.23465 46.1166 8.00114C46.3068 7.76764 46.5432 7.57596 46.8111 7.43815C46.9956 7.30476 47.2193 7.23667 47.4468 7.24463C47.6743 7.2526 47.8927 7.33616 48.0674 7.48213C48.3061 7.68316 48.5699 7.85908 48.8149 8.05383C48.8944 8.12491 48.9973 8.16422 49.1039 8.16422C49.2105 8.16422 49.3134 8.12491 49.3928 8.05383C49.6755 7.88421 50.021 7.78367 50.2974 7.63918C50.4376 7.58307 50.564 7.49738 50.668 7.38792C51.0354 6.96055 51.5572 6.69622 52.1191 6.65289C52.8729 6.4707 53.6392 6.65289 54.3742 6.46443C54.5049 6.42418 54.6398 6.3989 54.7762 6.38905C55.0685 6.38455 55.3607 6.40559 55.6494 6.45189C56.3152 6.5901 56.9748 6.80995 57.6469 6.8979C58.5434 7.02047 59.4553 6.96283 60.3292 6.72831C60.7564 6.61523 61.2087 6.57752 61.6484 6.47701C62.0056 6.38865 62.3561 6.27531 62.6974 6.13779C62.7979 6.10009 62.8796 5.93675 62.9236 5.81739C63.1497 5.18918 63.3319 4.56096 63.5894 4.00185C63.7644 3.69716 63.9753 3.41452 64.2176 3.16003C64.7435 2.57011 65.4391 2.15757 66.2089 1.97902C66.4579 1.94959 66.7103 1.98193 66.9438 2.07323C67.2516 2.14862 67.572 2.26798 67.8421 2.34965C67.9936 2.42012 68.1636 2.44046 68.3274 2.4077C68.4912 2.37493 68.6403 2.29079 68.753 2.16748C68.8608 2.08184 68.9924 2.03137 69.1298 2.02296C70.0344 1.88476 70.9453 1.74656 71.8561 1.63976C72.909 1.50749 73.9773 1.69576 74.9216 2.18002C75.5497 2.51925 76.2219 2.90249 76.8689 3.27314C76.9345 3.31457 76.9938 3.36536 77.0448 3.4239L78.3388 4.76825C78.4224 4.87787 78.527 4.96974 78.6466 5.03841C79.1939 5.37657 79.7016 5.77479 80.1605 6.22571C80.2867 6.32101 80.3809 6.4525 80.4306 6.60266C80.4972 6.90824 80.6549 7.18641 80.8829 7.40046C80.9708 7.46956 80.9834 7.64549 81.0148 7.77741C81.0266 7.93217 81.0519 8.08559 81.0902 8.23599C81.2223 8.56671 81.2223 8.93556 81.0902 9.26627C80.9239 9.66479 80.8995 10.1083 81.0211 10.5227C81.0298 10.5806 81.0445 10.6375 81.065 10.6923C81.3979 11.2137 81.7309 11.7414 82.0889 12.2566C82.2397 12.4764 82.4721 12.6461 82.648 12.8534C82.7467 13.0106 82.8791 13.1439 83.0355 13.2438C83.1919 13.3438 83.3685 13.4078 83.5526 13.4313C83.6833 13.4359 83.8076 13.4895 83.9007 13.5814C83.9938 13.6733 84.0489 13.7969 84.0551 13.9276C84.0928 14.4679 84.4257 14.9641 84.2875 15.5358C84.2786 15.5751 84.279 15.616 84.2887 15.6551C84.2984 15.6942 84.3171 15.7305 84.3434 15.761C84.3697 15.7916 84.4027 15.8155 84.4399 15.831C84.4771 15.8464 84.5174 15.8529 84.5576 15.8499C84.8277 15.8499 84.9597 16.0384 85.1167 16.2269C85.2685 16.4018 85.4368 16.5616 85.6192 16.7043C85.6946 16.7734 85.8454 16.8174 85.8517 16.8802C85.9208 17.5587 86.6369 17.5461 86.9761 17.9419C87.2148 18.2246 87.5415 18.4319 87.7739 18.7146C87.8994 18.8271 87.985 18.9774 88.0179 19.1428C88.0507 19.3082 88.029 19.4798 87.956 19.6318C87.8786 19.7786 87.7586 19.8985 87.6117 19.9759C87.4648 20.0533 87.298 20.0844 87.1331 20.0652C86.7836 20.0957 86.4383 20.1631 86.1029 20.2663C85.8976 20.3171 85.6863 20.3404 85.4748 20.3354C85.0288 20.304 84.5828 20.2348 84.1368 20.1657C84.0523 20.1406 83.9616 20.1464 83.881 20.1821C83.8005 20.2178 83.7352 20.281 83.697 20.3605C83.6507 20.4478 83.5982 20.5318 83.54 20.6118C83.4205 20.8172 83.2246 20.9669 82.995 21.0281C82.7654 21.0893 82.521 21.0571 82.3151 20.9385C82.1078 20.838 81.8817 20.7688 81.6869 20.6558C81.2158 20.3919 80.7635 20.0904 80.2861 19.8328C79.8087 19.5752 79.1303 19.2737 78.5524 18.991C78.3074 18.8716 78.0687 18.746 77.83 18.6141C77.4312 18.3088 76.9992 18.0496 76.5422 17.8414C76.4512 17.8044 76.3665 17.7535 76.291 17.6906L74.7205 16.6917C74.5195 16.5598 74.3374 16.4153 74.1489 16.2834C73.9605 16.1515 73.9228 16.0698 73.816 16.0698C73.5207 16.0698 73.3951 15.8751 73.1878 15.7306C72.9075 15.5428 72.6428 15.3327 72.3963 15.1024C71.6739 14.3862 70.9201 13.7077 70.1914 12.9979C69.8711 12.69 69.5947 12.3319 69.2995 11.999C69.2555 11.955 69.2178 11.9111 69.1738 11.8734C68.9656 11.6395 68.6775 11.4918 68.3661 11.4593C68.0547 11.4268 67.7424 11.5117 67.4903 11.6975C67.2391 11.8482 66.9815 11.999 66.724 12.1372C66.5865 12.2147 66.4767 12.3333 66.4102 12.4764C66.3438 12.6196 66.3238 12.78 66.3533 12.935C66.3533 13.2617 66.5355 13.3999 66.8622 13.4878C67.3961 13.6323 67.9238 13.8083 68.4577 13.9528C68.5853 13.9741 68.7005 14.0416 68.7815 14.1424C68.8626 14.2431 68.9038 14.3701 68.8974 14.4993C68.8987 14.8138 69.0048 15.1188 69.199 15.3662C69.2837 15.5414 69.351 15.7244 69.4 15.9128C69.5118 16.0896 69.6105 16.2743 69.6952 16.4656C69.8462 16.8679 69.929 17.2925 69.9402 17.722C69.9026 18.0502 69.926 18.3824 70.0093 18.702C70.1591 19.2092 70.2228 19.738 70.1977 20.2663C70.1735 20.6792 70.2718 21.0901 70.4804 21.4473C70.8097 22.0557 70.9289 22.7557 70.8196 23.4387C70.7673 23.6272 70.7611 23.8255 70.8016 24.0168C70.842 24.2082 70.9279 24.387 71.052 24.5381C71.1366 24.6466 71.187 24.7778 71.1965 24.915C71.2547 25.1773 71.2883 25.4444 71.297 25.7129C71.299 25.9019 71.2514 26.0882 71.1588 26.2531C70.8071 26.8374 70.4302 27.409 70.0533 27.9807C69.7831 28.3828 69.4816 28.766 69.2178 29.1806C68.7729 29.7969 68.368 30.4411 68.0054 31.1092C67.8081 31.4434 67.5427 31.7323 67.2265 31.9573C67.0352 32.0633 66.8157 32.1072 66.5983 32.083C65.9702 32.083 65.6938 32.328 65.6812 32.9499C65.6812 33.3268 65.6812 33.6974 65.7126 34.0681C65.7354 34.2222 65.7733 34.3737 65.8257 34.5204C65.8948 34.7403 65.9827 34.9539 66.033 35.1486C66.0753 35.4229 66.2215 35.6703 66.4413 35.8396C66.5101 35.909 66.5954 35.9598 66.6892 35.9873C66.7831 36.0147 66.8823 36.0179 66.9777 35.9966C67.0731 35.9753 67.1615 35.9301 67.2347 35.8653C67.3078 35.8005 67.3634 35.7182 67.3961 35.6261C67.4115 35.5894 67.4241 35.5515 67.4338 35.513C67.4966 35.3308 67.5406 35.1046 67.7856 35.0921C68.0306 35.0795 68.1311 35.3371 68.1876 35.5318C68.2667 35.751 68.2883 35.9867 68.2504 36.2166C68.1521 36.6729 67.9892 37.1129 67.7667 37.5233C67.5559 37.9819 67.4222 38.4722 67.371 38.9744C67.3676 39.1119 67.4146 39.246 67.5029 39.3514C67.7785 39.7534 68.0741 40.1413 68.3886 40.5136C68.4815 40.6088 68.5446 40.729 68.5703 40.8596C68.5959 40.9901 68.583 41.1252 68.5331 41.2486C68.4075 41.7323 68.2504 42.1344 67.729 42.2977C67.7016 42.3052 67.6761 42.3187 67.6544 42.3371C67.6326 42.3556 67.6152 42.3786 67.6034 42.4045C67.4715 42.907 66.9752 42.9824 66.6423 43.2023C66.1649 43.5039 65.6624 43.7614 65.1913 44.0818C65.0465 44.2067 64.9489 44.3774 64.9149 44.5655C64.8858 44.7437 64.8133 44.9121 64.7037 45.0556C64.5942 45.1991 64.4509 45.3135 64.2867 45.3885C63.6585 45.6963 63.1748 46.2931 62.4713 46.4439C61.7998 46.6513 61.1951 47.0328 60.7187 47.5495C60.4685 47.7905 60.2355 48.0487 60.0214 48.3222C59.8958 48.473 59.9209 48.6489 60.1219 48.6929C60.4261 48.7557 60.735 48.7935 61.0453 48.806C61.192 48.7962 61.3392 48.8168 61.4775 48.8665C61.6159 48.9162 61.7425 48.994 61.8494 49.095C61.975 49.2332 62.1069 49.3337 61.9876 49.541C61.9704 49.5751 61.9615 49.6127 61.9615 49.6509C61.9615 49.6891 61.9704 49.7267 61.9876 49.7609C62.3708 50.2697 62.2388 50.8979 62.3833 51.457C62.4239 51.6812 62.5094 51.8949 62.6346 52.0852C62.9319 52.4542 63.0977 52.9118 63.1057 53.3856C63.1161 53.6033 63.1695 53.8168 63.2628 54.0138C63.4638 54.4599 63.2628 54.9687 62.7979 54.9436C62.1132 54.9436 61.3531 54.9436 60.9134 54.3154C60.8278 54.1705 60.7023 54.0532 60.552 53.9775C60.4017 53.9018 60.2328 53.8708 60.0654 53.8882C59.6065 53.8553 59.1543 53.7602 58.7211 53.6055C58.6395 53.6055 58.539 53.4484 58.5201 53.3479C58.4447 52.9333 58.1934 52.8139 57.7851 52.7197C57.3752 52.6831 56.9821 52.5397 56.6448 52.3038C56.3076 52.0679 56.038 51.7478 55.8629 51.3753C55.7545 51.1447 55.6104 50.9327 55.4358 50.7471C55.3602 50.6724 55.3023 50.5818 55.2664 50.4817C55.2306 50.3817 55.2176 50.2749 55.2285 50.1692C55.2443 49.704 55.2317 49.2382 55.1908 48.7746C55.1908 48.5044 55.1908 48.3034 55.4672 48.2154C55.7436 48.1275 55.7624 47.9265 55.6431 47.7066C55.3363 47.0235 55.2149 46.2716 55.2913 45.5267C55.2913 45.0995 55.2913 44.666 55.2913 44.2326C55.2913 43.6043 55.731 43.2274 56.1456 42.8568C56.317 42.7274 56.5024 42.6178 56.6984 42.5301C56.9883 42.3726 57.286 42.23 57.5904 42.1029C58.0366 41.9467 58.4377 41.6835 58.7588 41.3365C59.1126 41.0038 59.5448 40.7661 60.0152 40.6455C60.2162 40.5638 60.4235 40.5199 60.6433 40.4507C60.7313 40.4507 60.8632 40.3879 60.8946 40.3188C61.1396 39.7723 61.6735 39.3639 61.6484 38.698C61.6484 37.919 61.5919 37.1338 61.5479 36.3548C61.542 36.1989 61.4961 36.0471 61.4147 35.914C61.3333 35.7809 61.2191 35.6709 61.083 35.5946C60.8379 35.4002 60.6366 35.1562 60.4925 34.8785C60.0717 34.2503 59.6508 33.5718 59.2362 32.8933C58.9071 32.3837 58.6333 31.8403 58.4196 31.2725C58.3608 31.0665 58.2434 30.8821 58.0817 30.7416C57.92 30.601 57.7209 30.5105 57.5087 30.481C57.0753 30.4496 56.5979 30.4307 56.1519 30.3805ZM38.5004 33.3708C37.7215 33.3142 37.2755 33.9111 37.5707 34.5581C37.8967 35.3133 38.0921 36.1184 38.1486 36.939C38.1946 37.2254 38.266 37.5072 38.3622 37.7808L39.1914 40.8339C39.1945 40.8527 39.1945 40.8717 39.1914 40.8905C39.2331 41.7673 39.4646 42.6246 39.8698 43.4033C39.9653 43.5604 40.0189 43.7393 40.0255 43.923C40.0321 44.1067 39.9915 44.289 39.9075 44.4525C39.8373 44.7361 39.8605 45.0348 39.9736 45.3042C40.0868 45.5736 40.284 45.7992 40.5357 45.9476C40.6318 45.9571 40.7285 45.9571 40.8246 45.9476H41.3837C41.5739 45.9633 41.7651 45.9633 41.9553 45.9476C42.1249 45.9476 42.2945 45.8031 42.4641 45.8157C42.914 45.7806 43.3469 45.629 43.7205 45.3759C43.8246 45.331 43.9158 45.2608 43.9858 45.1715C44.0558 45.0823 44.1023 44.9769 44.121 44.865C44.1398 44.7532 44.1302 44.6384 44.0931 44.5312C44.0561 44.424 43.9927 44.3278 43.9089 44.2514C43.6075 43.9788 43.4215 43.6014 43.3888 43.1963C43.3562 42.7912 43.4792 42.3889 43.733 42.0715C43.9093 41.811 43.9954 41.4999 43.978 41.1857C43.9384 40.4398 44.0234 39.6925 44.2293 38.9744C44.2857 38.7404 44.4002 38.5243 44.5622 38.3462C45.1904 37.7683 46.0196 37.4353 46.5472 36.7317C46.6505 36.6408 46.7644 36.5627 46.8864 36.4993C46.9879 36.4386 47.0809 36.3646 47.1628 36.2794C48.0321 35.302 48.7653 34.2116 49.3426 33.0378C49.4745 32.7802 49.6315 32.529 49.7572 32.2651C49.8558 32.0661 49.9276 31.8548 49.9707 31.6369C49.981 31.5982 49.9826 31.5577 49.9754 31.5183C49.9681 31.4789 49.9521 31.4417 49.9287 31.4092C49.9053 31.3767 49.8749 31.3499 49.8398 31.3306C49.8047 31.3113 49.7657 31.3001 49.7258 31.2977C49.5942 31.2549 49.4547 31.242 49.3174 31.26C49.0314 31.3328 48.7285 31.2946 48.4694 31.1532C48.2835 31.0974 48.0916 31.0636 47.8978 31.0527C47.0727 31.0666 46.2738 31.344 45.6175 31.8442C44.9517 32.24 44.3235 32.6923 43.6702 33.1007C43.5694 33.1658 43.451 33.1987 43.331 33.1949C42.7114 33.1899 42.0947 33.281 41.503 33.465C41.0727 33.5059 40.6394 33.5059 40.209 33.465H39.6876C39.4567 33.4631 39.226 33.4484 38.9967 33.421C38.8305 33.4131 38.6648 33.3963 38.5004 33.3708ZM46.1326 43.9247C46.1326 43.9687 46.1955 44.1572 46.2771 44.1823C46.3494 44.1939 46.4233 44.1909 46.4945 44.1737C46.5657 44.1564 46.6327 44.1252 46.6917 44.0818C46.9009 43.9376 47.0802 43.7541 47.2194 43.5415C47.4204 43.1709 47.5523 42.7626 47.7156 42.3731C47.4007 42.5201 47.0982 42.6924 46.8111 42.8882L46.4719 43.1207C46.3487 43.2165 46.2526 43.3428 46.1932 43.4871C46.1337 43.6314 46.1128 43.7888 46.1326 43.9436V43.9247ZM48.1239 48.1589C48.2504 48.1692 48.3778 48.1586 48.5008 48.1275C48.6076 48.0709 48.7584 47.9642 48.7584 47.8762C48.7584 47.7883 48.6264 47.6437 48.5259 47.6061C48.3063 47.5324 48.0785 47.486 47.8475 47.4679C47.6654 47.4679 47.4518 47.4679 47.4769 47.7254C47.5193 47.886 47.6201 48.0249 47.7596 48.1149C47.8744 48.1643 47.9992 48.1859 48.1239 48.1778V48.1589Z" fill="white"/>
</g>
<defs>
<clipPath id="clip0_105_313">
<rect width="88" height="55" fill="white"/>
</clipPath>
</defs>
</svg>
